<?xml version="1.0" encoding="UTF-8"?>
<svg width="100%" height="100%" viewBox="0 0 640 448" version="1.1" xmlns="http://www.w3.org/2000/svg" xmlns:xlink="http://www.w3.org/1999/xlink">
    <title>Combined Shape</title>
    <g id="Page-1" stroke="none" stroke-width="1" fill="none" fill-rule="evenodd" fill-opacity="0.54">
        <path d="M272,0 C331.5,0 384.1,29.55 416,74.8 C430.5,67.87 446.8,64 464,64 C525.9,64 576,114.1 576,176 C576,186.7 574.5,196.1 571.7,206.8 C612.3,228.2 640,270.9 640,320 C640,390.7 582.7,448 512,448 L144,448 C64.47,448 0,383.5 0,304 C0,241.2 40.15,187.9 96.17,168.1 C100.3,74.6 177.4,0 272,0 Z M272,32 C194.6,32 131.5,93 128.1,169.5 C127.6,182.6 119.1,193.1 106.8,198.3 C63.18,213.7 32,255.2 32,304 C32,365.9 82.14,416 144,416 L512,416 C565,416 608,373 608,320 C608,283.2 587.3,251.2 556.8,235.1 C543.4,227.1 536.8,212.5 540.9,197.1 C542.9,191 544,183.7 544,176 C544,131.8 508.2,96 464,96 C451.7,96 440.1,98.8 429.7,103.7 C415.7,110.4 398.8,105.9 389.8,93.2 C363.7,56.12 320.7,32 272,32 Z M360.125,92 C365.453125,92 369.8125,96.3327344 369.8125,101.6875 L369.8125,101.6875 L369.8125,130.75 L379.5,130.75 C400.90332,130.75 418.25,148.09668 418.25,169.5 L418.25,169.5 L418.25,179.1875 L447.3125,179.1875 C452.667266,179.1875 457,183.546875 457,188.875 C457,194.203125 452.640625,198.5625 447.3125,198.5625 L447.3125,198.5625 L418.25,198.5625 L418.25,237.3125 L447.3125,237.3125 C452.667266,237.3125 457,241.671875 457,247 C457,252.328125 452.640625,256.6875 447.3125,256.6875 L447.3125,256.6875 L418.25,256.6875 L418.25,295.4375 L447.3125,295.4375 C452.667266,295.4375 457,299.770234 457,305.125 C457,310.479766 452.667266,314.8125 447.3125,314.8125 L447.3125,314.8125 L418.25,314.8125 L418.25,324.5 C418.25,345.90332 400.90332,363.25 379.5,363.25 L379.5,363.25 L369.8125,363.25 L369.8125,392.3125 C369.8125,397.667266 365.479766,402 360.125,402 C354.770234,402 350.4375,397.667266 350.4375,392.3125 L350.4375,392.3125 L350.4375,363.25 L311.6875,363.25 L311.6875,392.3125 C311.6875,397.667266 307.354766,402 302,402 C296.645234,402 292.3125,397.667266 292.3125,392.3125 L292.3125,392.3125 L292.3125,363.25 L253.5625,363.25 L253.5625,392.3125 C253.5625,397.667266 249.203125,402 243.875,402 C238.546875,402 234.1875,397.640625 234.1875,392.3125 L234.1875,392.3125 L234.1875,363.25 L224.5,363.25 C203.09668,363.25 185.75,345.90332 185.75,324.5 L185.75,324.5 L185.75,314.8125 L156.6875,314.8125 C151.332734,314.8125 147,310.453125 147,305.125 C147,299.796875 151.332734,295.4375 156.6875,295.4375 L156.6875,295.4375 L185.75,295.4375 L185.75,256.6875 L156.6875,256.6875 C151.332734,256.6875 147,252.328125 147,247 C147,241.671875 151.332734,237.3125 156.6875,237.3125 L156.6875,237.3125 L185.75,237.3125 L185.75,198.5625 L156.6875,198.5625 C151.332734,198.5625 147,194.203125 147,188.875 C147,183.546875 151.332734,179.1875 156.6875,179.1875 L156.6875,179.1875 L185.75,179.1875 L185.75,169.5 C185.75,148.09668 203.09668,130.75 224.5,130.75 L224.5,130.75 L234.1875,130.75 L234.1875,101.6875 C234.1875,96.3327344 238.546875,92 243.875,92 C249.203125,92 253.5625,96.3327344 253.5625,101.6875 L253.5625,101.6875 L253.5625,130.75 L292.3125,130.75 L292.3125,101.6875 C292.3125,96.3327344 296.671875,92 302,92 C307.328125,92 311.6875,96.3327344 311.6875,101.6875 L311.6875,101.6875 L311.6875,130.75 L350.4375,130.75 L350.4375,101.6875 C350.4375,96.3327344 354.796875,92 360.125,92 Z M379.5,150.125 L224.5,150.125 C213.819531,150.125 205.125,158.819531 205.125,169.5 L205.125,169.5 L205.125,324.5 C205.125,335.180469 213.819531,343.875 224.5,343.875 L224.5,343.875 L379.5,343.875 C390.180469,343.875 398.875,335.180469 398.875,324.5 L398.875,324.5 L398.875,169.5 C398.875,158.819531 390.180469,150.125 379.5,150.125 L379.5,150.125 Z M360.125,169.5 C370.841797,169.5 379.5,178.158203 379.5,188.875 L379.5,188.875 L379.5,305.125 C379.5,315.823633 370.823633,324.5 360.125,324.5 L360.125,324.5 L243.875,324.5 C233.176367,324.5 224.5,315.823633 224.5,305.125 L224.5,305.125 L224.5,188.875 C224.5,178.158203 233.158203,169.5 243.875,169.5 L243.875,169.5 Z M360.125,188.875 L243.875,188.875 L243.875,305.125 L360.125,305.125 L360.125,188.875 Z" id="Combined-Shape" fill="#000000" fill-rule="nonzero"></path>
    </g>
</svg>